<?xml version="1.0" standalone="no"?>
<!DOCTYPE svg PUBLIC "-//W3C//DTD SVG 20001102//EN"
"http://www.w3.org/TR/2000/CR-SVG-20001102/DTD/svg-20001102.dtd">
<svg width="768" height="384"
	xmlns:sodipodi="http://sodipodi.sourceforge.net/DTD/sodipodi-0.dtd">
<desc>wmf2svg</desc>
<line x1="514.131531" y1="183.158875" x2="588.309753" y2="183.158875" 
	style="stroke-width:5.875363; stroke-linecap:round; stroke-linejoin:round; stroke-dasharray:none; stroke:black" />
<text x="0" y="0" style="font-family:Times; font-style:normal; font-weight:normal; font-size:159.239746; fill:black" transform="matrix(1.000000 -0.000000 0.000000 1.000000 522.444641 122.614601)"
	>2</text>
<text x="0" y="0" style="font-family:Times; font-style:normal; font-weight:normal; font-size:159.239746; fill:black" transform="matrix(1.000000 -0.000000 0.000000 1.000000 0.000000 222.968811)"
	>6</text>
<text x="0" y="0" style="font-family:Times; font-style:normal; font-weight:normal; font-size:159.239746; fill:black" transform="matrix(1.000000 -0.000000 0.000000 1.000000 84.409660 222.968811)"
	>0</text>
<text x="0" y="0" style="font-family:Times; font-style:normal; font-weight:normal; font-size:159.239746; fill:black" transform="matrix(1.000000 -0.000000 0.000000 1.000000 145.798508 222.968811)"
	>.</text>
<text x="0" y="0" style="font-family:Times; font-style:normal; font-weight:normal; font-size:159.239746; fill:black" transform="matrix(1.000000 -0.000000 0.000000 1.000000 176.492905 222.968811)"
	>5</text>
<text x="0" y="0" style="font-family:Times; font-style:normal; font-weight:normal; font-size:159.239746; fill:black" transform="matrix(1.000000 -0.000000 0.000000 1.000000 522.444641 347.374847)"
	>3</text>
<text x="0" y="0" style="font-family:Times; font-style:normal; font-weight:normal; font-size:159.239746; fill:red" transform="matrix(1.000000 -0.000000 0.000000 1.000000 425.885101 222.968811)"
	> </text>
<text x="0" y="0" style="font-family:Times; font-style:italic; font-weight:normal; font-size:159.239746; fill:black" transform="matrix(1.000000 -0.000000 0.000000 1.000000 364.496277 222.968811)"
	>x</text>
<text x="0" y="0" style="font-family:Symbol; font-style:normal; font-weight:normal; font-size:159.239746; fill:black" transform="matrix(1.000000 -0.000000 0.000000 1.000000 262.820984 222.968811)"
	>=</text>
<text x="0" y="0" style="font-family:Times; font-style:normal; font-weight:normal; font-size:159.239746; fill:black" transform="matrix(1.000000 -0.000000 0.000000 1.000000 456.579529 222.968811)"
	>Ł</text>
<text x="0" y="0" style="font-family:Times; font-style:normal; font-weight:normal; font-size:159.239746; fill:black" transform="matrix(1.000000 -0.000000 0.000000 1.000000 702.134888 222.968811)"
	>ş</text>
<text x="0" y="0" style="font-family:Times; font-style:normal; font-weight:normal; font-size:159.239746; fill:black" transform="matrix(1.000000 -0.000000 0.000000 1.000000 42.204826 222.968811)"
	>:</text>
</svg>
