<?xml version="1.0" standalone="no"?>
<!DOCTYPE svg PUBLIC "-//W3C//DTD SVG 20001102//EN"
"http://www.w3.org/TR/2000/CR-SVG-20001102/DTD/svg-20001102.dtd">
<svg width="768" height="396"
	xmlns:sodipodi="http://sodipodi.sourceforge.net/DTD/sodipodi-0.dtd">
<desc>wmf2svg</desc>
<line x1="157.488617" y1="188.882584" x2="225.539246" y2="188.882584" 
	style="stroke-width:7.141116; stroke-linecap:round; stroke-linejoin:round; stroke-dasharray:none; stroke:black" />
<line x1="342.197449" y1="188.882584" x2="410.248077" y2="188.882584" 
	style="stroke-width:7.141116; stroke-linecap:round; stroke-linejoin:round; stroke-dasharray:none; stroke:black" />
<line x1="515.240479" y1="188.882584" x2="581.346863" y2="188.882584" 
	style="stroke-width:7.141116; stroke-linecap:round; stroke-linejoin:round; stroke-dasharray:none; stroke:black" />
<text x="0" y="0" style="font-family:Times; font-style:normal; font-weight:normal; font-size:164.215988; fill:black" transform="matrix(1.000000 -0.000000 0.000000 1.000000 161.377213 126.446312)"
	>5</text>
<text x="0" y="0" style="font-family:Times; font-style:normal; font-weight:normal; font-size:164.215988; fill:black" transform="matrix(1.000000 -0.000000 0.000000 1.000000 347.058228 126.446312)"
	>3</text>
<text x="0" y="0" style="font-family:Times; font-style:normal; font-weight:normal; font-size:164.215988; fill:black" transform="matrix(1.000000 -0.000000 0.000000 1.000000 517.184814 126.446312)"
	>1</text>
<text x="0" y="0" style="font-family:Times; font-style:normal; font-weight:normal; font-size:164.215988; fill:black" transform="matrix(1.000000 -0.000000 0.000000 1.000000 0.000000 229.936584)"
	>3</text>
<text x="0" y="0" style="font-family:Times; font-style:normal; font-weight:normal; font-size:164.215988; fill:black" transform="matrix(1.000000 -0.000000 0.000000 1.000000 162.349365 358.230316)"
	>3</text>
<text x="0" y="0" style="font-family:Times; font-style:normal; font-weight:normal; font-size:164.215988; fill:black" transform="matrix(1.000000 -0.000000 0.000000 1.000000 346.086060 358.230316)"
	>5</text>
<text x="0" y="0" style="font-family:Times; font-style:normal; font-weight:normal; font-size:164.215988; fill:black" transform="matrix(1.000000 -0.000000 0.000000 1.000000 519.129089 358.230316)"
	>3</text>
<text x="0" y="0" style="font-family:Symbol; font-style:normal; font-weight:normal; font-size:164.215988; fill:black" transform="matrix(1.000000 -0.000000 0.000000 1.000000 250.815170 229.936584)"
	>-</text>
<text x="0" y="0" style="font-family:Symbol; font-style:normal; font-weight:normal; font-size:164.215988; fill:black" transform="matrix(1.000000 -0.000000 0.000000 1.000000 69.994934 229.936584)"
	>´</text>
<text x="0" y="0" style="font-family:Symbol; font-style:normal; font-weight:normal; font-size:164.215988; fill:black" transform="matrix(1.000000 -0.000000 0.000000 1.000000 427.746826 229.936584)"
	>´</text>
</svg>
