<?xml version="1.0" standalone="no"?>
<!DOCTYPE svg PUBLIC "-//W3C//DTD SVG 20001102//EN"
"http://www.w3.org/TR/2000/CR-SVG-20001102/DTD/svg-20001102.dtd">
<svg width="768" height="384"
	xmlns:sodipodi="http://sodipodi.sourceforge.net/DTD/sodipodi-0.dtd">
<desc>wmf2svg</desc>
<line x1="2.306306" y1="174.490860" x2="69.189186" y2="174.490860" 
	style="stroke-width:5.466800; stroke-linecap:round; stroke-linejoin:round; stroke-dasharray:none; stroke:black" />
<line x1="225.441422" y1="174.490860" x2="335.567535" y2="174.490860" 
	style="stroke-width:5.466800; stroke-linecap:round; stroke-linejoin:round; stroke-dasharray:none; stroke:black" />
<line x1="428.972961" y1="174.490860" x2="530.450439" y2="174.490860" 
	style="stroke-width:5.466800; stroke-linecap:round; stroke-linejoin:round; stroke-dasharray:none; stroke:black" />
<text x="0" y="0" style="font-family:Times; font-style:normal; font-weight:normal; font-size:151.703705; fill:black" transform="matrix(1.000000 -0.000000 0.000000 1.000000 8.072071 116.811859)"
	>7</text>
<text x="0" y="0" style="font-family:Times; font-style:normal; font-weight:normal; font-size:151.703705; fill:black" transform="matrix(1.000000 -0.000000 0.000000 1.000000 225.153152 116.811859)"
	>1</text>
<text x="0" y="0" style="font-family:Times; font-style:normal; font-weight:normal; font-size:151.703705; fill:black" transform="matrix(1.000000 -0.000000 0.000000 1.000000 280.504486 116.811859)"
	>1</text>
<text x="0" y="0" style="font-family:Times; font-style:normal; font-weight:normal; font-size:151.703705; fill:black" transform="matrix(1.000000 -0.000000 0.000000 1.000000 452.900848 116.811859)"
	>5</text>
<text x="0" y="0" style="font-family:Times; font-style:normal; font-weight:normal; font-size:151.703705; fill:black" transform="matrix(1.000000 -0.000000 0.000000 1.000000 8.072071 330.935303)"
	>8</text>
<text x="0" y="0" style="font-family:Times; font-style:normal; font-weight:normal; font-size:151.703705; fill:black" transform="matrix(1.000000 -0.000000 0.000000 1.000000 220.828812 330.935303)"
	>1</text>
<text x="0" y="0" style="font-family:Times; font-style:normal; font-weight:normal; font-size:151.703705; fill:black" transform="matrix(1.000000 -0.000000 0.000000 1.000000 276.180176 330.935303)"
	>0</text>
<text x="0" y="0" style="font-family:Times; font-style:normal; font-weight:normal; font-size:151.703705; fill:black" transform="matrix(1.000000 -0.000000 0.000000 1.000000 424.360321 330.935303)"
	>1</text>
<text x="0" y="0" style="font-family:Times; font-style:normal; font-weight:normal; font-size:151.703705; fill:black" transform="matrix(1.000000 -0.000000 0.000000 1.000000 479.711700 330.935303)"
	>1</text>
<text x="0" y="0" style="font-family:Symbol; font-style:normal; font-weight:normal; font-size:151.703705; fill:black" transform="matrix(1.000000 -0.000000 0.000000 1.000000 166.054047 127.873589)"
	>ć</text>
<text x="0" y="0" style="font-family:Symbol; font-style:normal; font-weight:normal; font-size:151.703705; fill:black" transform="matrix(1.000000 -0.000000 0.000000 1.000000 546.594604 127.873589)"
	>ö</text>
<text x="0" y="0" style="font-family:Symbol; font-style:normal; font-weight:normal; font-size:151.703705; fill:black" transform="matrix(1.000000 -0.000000 0.000000 1.000000 91.675667 212.416809)"
	>¸</text>
<text x="0" y="0" style="font-family:Symbol; font-style:normal; font-weight:normal; font-size:151.703705; fill:black" transform="matrix(1.000000 -0.000000 0.000000 1.000000 351.135101 212.416809)"
	>´</text>
<text x="0" y="0" style="font-family:Symbol; font-style:normal; font-weight:normal; font-size:151.703705; fill:black" transform="matrix(1.000000 -0.000000 0.000000 1.000000 166.054047 253.898300)"
	>ç</text>
<text x="0" y="0" style="font-family:Symbol; font-style:normal; font-weight:normal; font-size:151.703705; fill:black" transform="matrix(1.000000 -0.000000 0.000000 1.000000 546.594604 253.898300)"
	>÷</text>
<text x="0" y="0" style="font-family:Symbol; font-style:normal; font-weight:normal; font-size:151.703705; fill:black" transform="matrix(1.000000 -0.000000 0.000000 1.000000 166.054047 349.108154)"
	>č</text>
<text x="0" y="0" style="font-family:Symbol; font-style:normal; font-weight:normal; font-size:151.703705; fill:black" transform="matrix(1.000000 -0.000000 0.000000 1.000000 546.594604 349.108154)"
	>ř</text>
</svg>
