<?xml version="1.0" standalone="no"?>
<!DOCTYPE svg PUBLIC "-//W3C//DTD SVG 20001102//EN"
"http://www.w3.org/TR/2000/CR-SVG-20001102/DTD/svg-20001102.dtd">
<svg width="768" height="396"
	xmlns:sodipodi="http://sodipodi.sourceforge.net/DTD/sodipodi-0.dtd">
<desc>wmf2svg</desc>
<line x1="508.726318" y1="188.882584" x2="583.365723" y2="188.882584" 
	style="stroke-width:7.172609; stroke-linecap:round; stroke-linejoin:round; stroke-dasharray:none; stroke:black" />
<text x="0" y="0" style="font-family:Times; font-style:normal; font-weight:normal; font-size:164.215988; fill:black" transform="matrix(1.000000 -0.000000 0.000000 1.000000 516.583130 126.446312)"
	>2</text>
<text x="0" y="0" style="font-family:Times; font-style:normal; font-weight:normal; font-size:164.215988; fill:black" transform="matrix(1.000000 -0.000000 0.000000 1.000000 0.000000 229.936584)"
	>0</text>
<text x="0" y="0" style="font-family:Times; font-style:normal; font-weight:normal; font-size:164.215988; fill:black" transform="matrix(1.000000 -0.000000 0.000000 1.000000 62.854214 229.936584)"
	>.</text>
<text x="0" y="0" style="font-family:Times; font-style:normal; font-weight:normal; font-size:164.215988; fill:black" transform="matrix(1.000000 -0.000000 0.000000 1.000000 94.281334 229.936584)"
	>5</text>
<text x="0" y="0" style="font-family:Times; font-style:normal; font-weight:normal; font-size:164.215988; fill:black" transform="matrix(1.000000 -0.000000 0.000000 1.000000 345.698181 229.936584)"
	>6</text>
<text x="0" y="0" style="font-family:Times; font-style:normal; font-weight:normal; font-size:164.215988; fill:black" transform="matrix(1.000000 -0.000000 0.000000 1.000000 516.583130 358.230316)"
	>3</text>
<text x="0" y="0" style="font-family:Times; font-style:italic; font-weight:normal; font-size:164.215988; fill:black" transform="matrix(1.000000 -0.000000 0.000000 1.000000 163.028137 229.936584)"
	>x</text>
<text x="0" y="0" style="font-family:Symbol; font-style:normal; font-weight:normal; font-size:164.215988; fill:black" transform="matrix(1.000000 -0.000000 0.000000 1.000000 249.452682 229.936584)"
	>=</text>
<text x="0" y="0" style="font-family:Symbol; font-style:normal; font-weight:normal; font-size:164.215988; fill:black" transform="matrix(1.000000 -0.000000 0.000000 1.000000 420.337585 229.936584)"
	>´</text>
</svg>
