<?xml version="1.0" standalone="no"?>
<!DOCTYPE svg PUBLIC "-//W3C//DTD SVG 20001102//EN"
"http://www.w3.org/TR/2000/CR-SVG-20001102/DTD/svg-20001102.dtd">
<svg width="768" height="396"
	xmlns:sodipodi="http://sodipodi.sourceforge.net/DTD/sodipodi-0.dtd">
<desc>wmf2svg</desc>
<line x1="165.119995" y1="188.882584" x2="232.320007" y2="188.882584" 
	style="stroke-width:7.102635; stroke-linecap:round; stroke-linejoin:round; stroke-dasharray:none; stroke:black" />
<line x1="347.519989" y1="188.882584" x2="414.719971" y2="188.882584" 
	style="stroke-width:7.102635; stroke-linecap:round; stroke-linejoin:round; stroke-dasharray:none; stroke:black" />
<text x="0" y="0" style="font-family:Times; font-style:normal; font-weight:normal; font-size:164.215988; fill:black" transform="matrix(1.000000 -0.000000 0.000000 1.000000 169.919998 126.446304)"
	>3</text>
<text x="0" y="0" style="font-family:Times; font-style:normal; font-weight:normal; font-size:164.215988; fill:black" transform="matrix(1.000000 -0.000000 0.000000 1.000000 352.320007 126.446304)"
	>3</text>
<text x="0" y="0" style="font-family:Times; font-style:normal; font-weight:normal; font-size:164.215988; fill:black" transform="matrix(1.000000 -0.000000 0.000000 1.000000 0.000000 229.936584)"
	>3</text>
<text x="0" y="0" style="font-family:Times; font-style:normal; font-weight:normal; font-size:164.215988; fill:black" transform="matrix(1.000000 -0.000000 0.000000 1.000000 522.239990 229.936584)"
	>3</text>
<text x="0" y="0" style="font-family:Times; font-style:normal; font-weight:normal; font-size:164.215988; fill:black" transform="matrix(1.000000 -0.000000 0.000000 1.000000 168.960007 358.230316)"
	>5</text>
<text x="0" y="0" style="font-family:Times; font-style:normal; font-weight:normal; font-size:164.215988; fill:black" transform="matrix(1.000000 -0.000000 0.000000 1.000000 351.359985 358.230316)"
	>5</text>
<text x="0" y="0" style="font-family:Symbol; font-style:normal; font-weight:normal; font-size:164.215988; fill:black" transform="matrix(1.000000 -0.000000 0.000000 1.000000 76.799995 229.936584)"
	>¸</text>
<text x="0" y="0" style="font-family:Symbol; font-style:normal; font-weight:normal; font-size:164.215988; fill:black" transform="matrix(1.000000 -0.000000 0.000000 1.000000 257.279999 229.936584)"
	>-</text>
<text x="0" y="0" style="font-family:Symbol; font-style:normal; font-weight:normal; font-size:164.215988; fill:black" transform="matrix(1.000000 -0.000000 0.000000 1.000000 439.679993 229.936584)"
	>¸</text>
</svg>
