<?xml version="1.0" standalone="no"?>
<!DOCTYPE svg PUBLIC "-//W3C//DTD SVG 20001102//EN"
"http://www.w3.org/TR/2000/CR-SVG-20001102/DTD/svg-20001102.dtd">
<svg width="768" height="372"
	xmlns:sodipodi="http://sodipodi.sourceforge.net/DTD/sodipodi-0.dtd">
<desc>wmf2svg</desc>
<line x1="523.130432" y1="177.435165" x2="593.623169" y2="177.435165" 
	style="stroke-width:6.753613; stroke-linecap:round; stroke-linejoin:round; stroke-dasharray:none; stroke:black" />
<text x="0" y="0" style="font-family:Times; font-style:normal; font-weight:normal; font-size:154.263504; fill:black" transform="matrix(1.000000 -0.000000 0.000000 1.000000 530.550720 118.782898)"
	>2</text>
<text x="0" y="0" style="font-family:Times; font-style:normal; font-weight:normal; font-size:154.263504; fill:black" transform="matrix(1.000000 -0.000000 0.000000 1.000000 0.000000 216.001022)"
	>6</text>
<text x="0" y="0" style="font-family:Times; font-style:normal; font-weight:normal; font-size:154.263504; fill:black" transform="matrix(1.000000 -0.000000 0.000000 1.000000 76.057968 216.001022)"
	>:</text>
<text x="0" y="0" style="font-family:Times; font-style:normal; font-weight:normal; font-size:154.263504; fill:black" transform="matrix(1.000000 -0.000000 0.000000 1.000000 126.144928 216.001022)"
	>0</text>
<text x="0" y="0" style="font-family:Times; font-style:normal; font-weight:normal; font-size:154.263504; fill:black" transform="matrix(1.000000 -0.000000 0.000000 1.000000 185.507233 216.001022)"
	>.</text>
<text x="0" y="0" style="font-family:Times; font-style:normal; font-weight:normal; font-size:154.263504; fill:black" transform="matrix(1.000000 -0.000000 0.000000 1.000000 215.188385 216.001022)"
	>5</text>
<text x="0" y="0" style="font-family:Times; font-style:normal; font-weight:normal; font-size:154.263504; fill:black" transform="matrix(1.000000 -0.000000 0.000000 1.000000 469.333313 216.001022)"
	>:</text>
<text x="0" y="0" style="font-family:Times; font-style:normal; font-weight:normal; font-size:154.263504; fill:black" transform="matrix(1.000000 -0.000000 0.000000 1.000000 530.550720 336.519409)"
	>3</text>
<text x="0" y="0" style="font-family:Symbol; font-style:normal; font-weight:normal; font-size:154.263504; fill:black" transform="matrix(1.000000 -0.000000 0.000000 1.000000 298.666656 216.001022)"
	>=</text>
<text x="0" y="0" style="font-family:Times; font-style:italic; font-weight:normal; font-size:154.263504; fill:black" transform="matrix(1.000000 -0.000000 0.000000 1.000000 396.985504 216.001022)"
	>x</text>
</svg>
