<?xml version="1.0" standalone="no"?>
<!DOCTYPE svg PUBLIC "-//W3C//DTD SVG 20001102//EN"
"http://www.w3.org/TR/2000/CR-SVG-20001102/DTD/svg-20001102.dtd">
<svg width="768" height="271"
	xmlns:sodipodi="http://sodipodi.sourceforge.net/DTD/sodipodi-0.dtd">
<desc>wmf2svg</desc>
<line x1="1.640149" y1="119.820717" x2="49.204483" y2="119.820717" 
	style="stroke-width:3.790943; stroke-linecap:round; stroke-linejoin:round; stroke-dasharray:none; stroke:black" />
<line x1="195.177795" y1="119.820717" x2="273.494934" y2="119.820717" 
	style="stroke-width:3.790943; stroke-linecap:round; stroke-linejoin:round; stroke-dasharray:none; stroke:black" />
<line x1="348.531769" y1="119.820717" x2="426.848907" y2="119.820717" 
	style="stroke-width:3.790943; stroke-linecap:round; stroke-linejoin:round; stroke-dasharray:none; stroke:black" />
<line x1="531.818481" y1="119.820717" x2="603.985046" y2="119.820717" 
	style="stroke-width:3.790943; stroke-linecap:round; stroke-linejoin:round; stroke-dasharray:none; stroke:black" />
<text x="0" y="0" style="font-family:Times; font-style:normal; font-weight:normal; font-size:103.238098; fill:black" transform="matrix(1.000000 -0.000000 0.000000 1.000000 548.835022 80.568733)"
	>5</text>
<text x="0" y="0" style="font-family:Times; font-style:normal; font-weight:normal; font-size:103.238098; fill:black" transform="matrix(1.000000 -0.000000 0.000000 1.000000 215.269623 80.568733)"
	>5</text>
<text x="0" y="0" style="font-family:Times; font-style:normal; font-weight:normal; font-size:103.238098; fill:black" transform="matrix(1.000000 -0.000000 0.000000 1.000000 368.623596 80.568733)"
	>6</text>
<text x="0" y="0" style="font-family:Times; font-style:normal; font-weight:normal; font-size:103.238098; fill:black" transform="matrix(1.000000 -0.000000 0.000000 1.000000 5.740523 80.568733)"
	>7</text>
<text x="0" y="0" style="font-family:Times; font-style:normal; font-weight:normal; font-size:103.238098; fill:black" transform="matrix(1.000000 -0.000000 0.000000 1.000000 191.897491 226.285019)"
	>1</text>
<text x="0" y="0" style="font-family:Times; font-style:normal; font-weight:normal; font-size:103.238098; fill:black" transform="matrix(1.000000 -0.000000 0.000000 1.000000 231.261078 226.285019)"
	>0</text>
<text x="0" y="0" style="font-family:Times; font-style:normal; font-weight:normal; font-size:103.238098; fill:black" transform="matrix(1.000000 -0.000000 0.000000 1.000000 345.251465 226.285019)"
	>1</text>
<text x="0" y="0" style="font-family:Times; font-style:normal; font-weight:normal; font-size:103.238098; fill:black" transform="matrix(1.000000 -0.000000 0.000000 1.000000 384.615051 226.285019)"
	>0</text>
<text x="0" y="0" style="font-family:Times; font-style:normal; font-weight:normal; font-size:103.238098; fill:black" transform="matrix(1.000000 -0.000000 0.000000 1.000000 5.740523 226.285019)"
	>8</text>
<text x="0" y="0" style="font-family:Times; font-style:normal; font-weight:normal; font-size:103.238098; fill:black" transform="matrix(1.000000 -0.000000 0.000000 1.000000 528.538147 226.285019)"
	>1</text>
<text x="0" y="0" style="font-family:Times; font-style:normal; font-weight:normal; font-size:103.238098; fill:black" transform="matrix(1.000000 -0.000000 0.000000 1.000000 567.901733 226.285019)"
	>1</text>
<text x="0" y="0" style="font-family:Symbol; font-style:normal; font-weight:normal; font-size:103.238098; fill:black" transform="matrix(1.000000 -0.000000 0.000000 1.000000 121.781097 79.493340)"
	>é</text>
<text x="0" y="0" style="font-family:Symbol; font-style:normal; font-weight:normal; font-size:103.238098; fill:black" transform="matrix(1.000000 -0.000000 0.000000 1.000000 610.545654 79.493340)"
	>ů</text>
<text x="0" y="0" style="font-family:Symbol; font-style:normal; font-weight:normal; font-size:103.238098; fill:black" transform="matrix(1.000000 -0.000000 0.000000 1.000000 152.943939 88.096512)"
	>ć</text>
<text x="0" y="0" style="font-family:Symbol; font-style:normal; font-weight:normal; font-size:103.238098; fill:black" transform="matrix(1.000000 -0.000000 0.000000 1.000000 438.329956 88.096512)"
	>ö</text>
<text x="0" y="0" style="font-family:Symbol; font-style:normal; font-weight:normal; font-size:103.238098; fill:black" transform="matrix(1.000000 -0.000000 0.000000 1.000000 65.195946 145.630249)"
	>¸</text>
<text x="0" y="0" style="font-family:Symbol; font-style:normal; font-weight:normal; font-size:103.238098; fill:black" transform="matrix(1.000000 -0.000000 0.000000 1.000000 289.486389 145.630249)"
	>+</text>
<text x="0" y="0" style="font-family:Symbol; font-style:normal; font-weight:normal; font-size:103.238098; fill:black" transform="matrix(1.000000 -0.000000 0.000000 1.000000 476.463440 145.630249)"
	>´</text>
<text x="0" y="0" style="font-family:Symbol; font-style:normal; font-weight:normal; font-size:103.238098; fill:black" transform="matrix(1.000000 -0.000000 0.000000 1.000000 152.943939 173.859421)"
	>ç</text>
<text x="0" y="0" style="font-family:Symbol; font-style:normal; font-weight:normal; font-size:103.238098; fill:black" transform="matrix(1.000000 -0.000000 0.000000 1.000000 438.329956 173.859421)"
	>÷</text>
<text x="0" y="0" style="font-family:Symbol; font-style:normal; font-weight:normal; font-size:103.238098; fill:black" transform="matrix(1.000000 -0.000000 0.000000 1.000000 121.781097 178.429855)"
	>ę</text>
<text x="0" y="0" style="font-family:Symbol; font-style:normal; font-weight:normal; font-size:103.238098; fill:black" transform="matrix(1.000000 -0.000000 0.000000 1.000000 610.545654 178.429855)"
	>ú</text>
<text x="0" y="0" style="font-family:Symbol; font-style:normal; font-weight:normal; font-size:103.238098; fill:black" transform="matrix(1.000000 -0.000000 0.000000 1.000000 152.943939 238.652069)"
	>č</text>
<text x="0" y="0" style="font-family:Symbol; font-style:normal; font-weight:normal; font-size:103.238098; fill:black" transform="matrix(1.000000 -0.000000 0.000000 1.000000 438.329956 238.652069)"
	>ř</text>
<text x="0" y="0" style="font-family:Symbol; font-style:normal; font-weight:normal; font-size:103.238098; fill:black" transform="matrix(1.000000 -0.000000 0.000000 1.000000 121.781097 247.255249)"
	>ë</text>
<text x="0" y="0" style="font-family:Symbol; font-style:normal; font-weight:normal; font-size:103.238098; fill:black" transform="matrix(1.000000 -0.000000 0.000000 1.000000 610.545654 247.255249)"
	>ű</text>
</svg>
