<?xml version="1.0" standalone="no"?>
<!DOCTYPE svg PUBLIC "-//W3C//DTD SVG 20001102//EN"
"http://www.w3.org/TR/2000/CR-SVG-20001102/DTD/svg-20001102.dtd">
<svg width="768" height="300"
	xmlns:sodipodi="http://sodipodi.sourceforge.net/DTD/sodipodi-0.dtd">
<desc>wmf2svg</desc>
<line x1="1.792299" y1="132.642868" x2="53.768963" y2="132.642868" 
	style="stroke-width:4.173251; stroke-linecap:round; stroke-linejoin:round; stroke-dasharray:none; stroke:black" />
<line x1="213.283554" y1="132.642868" x2="265.260223" y2="132.642868" 
	style="stroke-width:4.173251; stroke-linecap:round; stroke-linejoin:round; stroke-dasharray:none; stroke:black" />
<line x1="347.257874" y1="132.642868" x2="395.201874" y2="132.642868" 
	style="stroke-width:4.173251; stroke-linecap:round; stroke-linejoin:round; stroke-dasharray:none; stroke:black" />
<line x1="509.908997" y1="132.642868" x2="588.770142" y2="132.642868" 
	style="stroke-width:4.173251; stroke-linecap:round; stroke-linejoin:round; stroke-dasharray:none; stroke:black" />
<text x="0" y="0" style="font-family:Times; font-style:normal; font-weight:normal; font-size:114.285721; fill:black" transform="matrix(1.000000 -0.000000 0.000000 1.000000 6.273046 89.190483)"
	>7</text>
<text x="0" y="0" style="font-family:Times; font-style:normal; font-weight:normal; font-size:114.285721; fill:black" transform="matrix(1.000000 -0.000000 0.000000 1.000000 217.764297 89.190483)"
	>1</text>
<text x="0" y="0" style="font-family:Times; font-style:normal; font-weight:normal; font-size:114.285721; fill:black" transform="matrix(1.000000 -0.000000 0.000000 1.000000 351.066498 89.190483)"
	>3</text>
<text x="0" y="0" style="font-family:Times; font-style:normal; font-weight:normal; font-size:114.285721; fill:black" transform="matrix(1.000000 -0.000000 0.000000 1.000000 528.504089 89.190483)"
	>5</text>
<text x="0" y="0" style="font-family:Times; font-style:normal; font-weight:normal; font-size:114.285721; fill:black" transform="matrix(1.000000 -0.000000 0.000000 1.000000 6.273046 250.500015)"
	>8</text>
<text x="0" y="0" style="font-family:Times; font-style:normal; font-weight:normal; font-size:114.285721; fill:black" transform="matrix(1.000000 -0.000000 0.000000 1.000000 219.108521 250.500015)"
	>2</text>
<text x="0" y="0" style="font-family:Times; font-style:normal; font-weight:normal; font-size:114.285721; fill:black" transform="matrix(1.000000 -0.000000 0.000000 1.000000 350.394409 250.500015)"
	>5</text>
<text x="0" y="0" style="font-family:Times; font-style:normal; font-weight:normal; font-size:114.285721; fill:black" transform="matrix(1.000000 -0.000000 0.000000 1.000000 506.324402 250.500015)"
	>1</text>
<text x="0" y="0" style="font-family:Times; font-style:normal; font-weight:normal; font-size:114.285721; fill:black" transform="matrix(1.000000 -0.000000 0.000000 1.000000 549.339539 250.500015)"
	>1</text>
<text x="0" y="0" style="font-family:Symbol; font-style:normal; font-weight:normal; font-size:114.285721; fill:black" transform="matrix(1.000000 -0.000000 0.000000 1.000000 133.078186 88.000000)"
	>é</text>
<text x="0" y="0" style="font-family:Symbol; font-style:normal; font-weight:normal; font-size:114.285721; fill:black" transform="matrix(1.000000 -0.000000 0.000000 1.000000 595.939331 88.000000)"
	>ů</text>
<text x="0" y="0" style="font-family:Symbol; font-style:normal; font-weight:normal; font-size:114.285721; fill:black" transform="matrix(1.000000 -0.000000 0.000000 1.000000 167.131851 97.523811)"
	>ć</text>
<text x="0" y="0" style="font-family:Symbol; font-style:normal; font-weight:normal; font-size:114.285721; fill:black" transform="matrix(1.000000 -0.000000 0.000000 1.000000 407.747955 97.523811)"
	>ö</text>
<text x="0" y="0" style="font-family:Symbol; font-style:normal; font-weight:normal; font-size:114.285721; fill:black" transform="matrix(1.000000 -0.000000 0.000000 1.000000 71.243874 161.214294)"
	>¸</text>
<text x="0" y="0" style="font-family:Symbol; font-style:normal; font-weight:normal; font-size:114.285721; fill:black" transform="matrix(1.000000 -0.000000 0.000000 1.000000 282.735107 161.214294)"
	>+</text>
<text x="0" y="0" style="font-family:Symbol; font-style:normal; font-weight:normal; font-size:114.285721; fill:black" transform="matrix(1.000000 -0.000000 0.000000 1.000000 449.418915 161.214294)"
	>´</text>
<text x="0" y="0" style="font-family:Symbol; font-style:normal; font-weight:normal; font-size:114.285721; fill:black" transform="matrix(1.000000 -0.000000 0.000000 1.000000 167.131851 192.464294)"
	>ç</text>
<text x="0" y="0" style="font-family:Symbol; font-style:normal; font-weight:normal; font-size:114.285721; fill:black" transform="matrix(1.000000 -0.000000 0.000000 1.000000 407.747955 192.464294)"
	>÷</text>
<text x="0" y="0" style="font-family:Symbol; font-style:normal; font-weight:normal; font-size:114.285721; fill:black" transform="matrix(1.000000 -0.000000 0.000000 1.000000 133.078186 197.523819)"
	>ę</text>
<text x="0" y="0" style="font-family:Symbol; font-style:normal; font-weight:normal; font-size:114.285721; fill:black" transform="matrix(1.000000 -0.000000 0.000000 1.000000 595.939331 197.523819)"
	>ú</text>
<text x="0" y="0" style="font-family:Symbol; font-style:normal; font-weight:normal; font-size:114.285721; fill:black" transform="matrix(1.000000 -0.000000 0.000000 1.000000 167.131851 264.190491)"
	>č</text>
<text x="0" y="0" style="font-family:Symbol; font-style:normal; font-weight:normal; font-size:114.285721; fill:black" transform="matrix(1.000000 -0.000000 0.000000 1.000000 407.747955 264.190491)"
	>ř</text>
<text x="0" y="0" style="font-family:Symbol; font-style:normal; font-weight:normal; font-size:114.285721; fill:black" transform="matrix(1.000000 -0.000000 0.000000 1.000000 133.078186 273.714294)"
	>ë</text>
<text x="0" y="0" style="font-family:Symbol; font-style:normal; font-weight:normal; font-size:114.285721; fill:black" transform="matrix(1.000000 -0.000000 0.000000 1.000000 595.939331 273.714294)"
	>ű</text>
</svg>
